<svg width="18" height="14" viewBox="0 0 18 14" fill="none" xmlns="http://www.w3.org/2000/svg">
<path fill-rule="evenodd" clip-rule="evenodd" d="M5.29999 0.166672C5.47397 0.166672 5.61499 0.30658 5.61499 0.479172V0.947922H8.34499V0.479172C8.34499 0.30658 8.48603 0.166672 8.65999 0.166672C8.83396 0.166672 8.97499 0.30658 8.97499 0.479172V0.947922H11.705V0.479172C11.705 0.30658 11.846 0.166672 12.02 0.166672C12.194 0.166672 12.335 0.30658 12.335 0.479172V0.947922H14.12C15.7437 0.947922 17.06 2.25376 17.06 3.86459V8.55925C17.06 9.27741 16.7929 9.97033 16.3099 10.5052L14.5764 12.4252C14.0187 13.0428 13.2224 13.3958 12.3865 13.3958L3.20004 13.396C1.57631 13.396 0.259995 12.0902 0.259995 10.4793V3.86459C0.259995 2.25376 1.57627 0.947922 3.19999 0.947922H4.98499V0.479172C4.98499 0.30658 5.12602 0.166672 5.29999 0.166672ZM4.98499 2.14584V1.57292H3.19999C1.92422 1.57292 0.889995 2.59894 0.889995 3.86459V10.4793C0.889995 11.745 1.92424 12.771 3.20003 12.771L12.3865 12.7708C12.4396 12.7708 12.4924 12.769 12.545 12.7654V9.64583C12.545 9.24316 12.8741 8.91666 13.28 8.91666H16.4018C16.4204 8.79908 16.43 8.67958 16.43 8.55925V3.86459C16.43 2.59894 15.3958 1.57292 14.12 1.57292H12.335V2.14584C12.335 2.31843 12.194 2.45834 12.02 2.45834C11.846 2.45834 11.705 2.31843 11.705 2.14584V1.57292H8.97499V2.14584C8.97499 2.31843 8.83396 2.45834 8.65999 2.45834C8.48603 2.45834 8.34499 2.31843 8.34499 2.14584V1.57292H5.61499V2.14584C5.61499 2.31843 5.47397 2.45834 5.29999 2.45834C5.12602 2.45834 4.98499 2.31843 4.98499 2.14584ZM13.175 12.6332C13.5291 12.5056 13.8503 12.2926 14.1071 12.0082L15.8407 10.0882C15.9898 9.92308 16.1126 9.73883 16.207 9.54166H13.28C13.222 9.54166 13.175 9.58833 13.175 9.64583V12.6332ZM4.45999 4.69792H5.29999V5.53125H4.45999V4.69792ZM6.97999 4.69792H7.81999V5.53125H6.97999V4.69792ZM10.34 4.69792H9.49999V5.53125H10.34V4.69792ZM12.02 4.69792H12.86V5.53125H12.02V4.69792ZM5.29999 7.19791H4.45999V8.03125H5.29999V7.19791ZM6.97999 7.19791H7.81999V8.03125H6.97999V7.19791ZM10.34 7.19791H9.49999V8.03125H10.34V7.19791ZM4.45999 9.69791H5.29999V10.5312H4.45999V9.69791ZM7.81999 9.69791H6.97999V10.5312H7.81999V9.69791ZM9.49999 9.69791H10.34V10.5312H9.49999V9.69791Z" fill="black"/>
</svg>
