<svg width="14" height="18" viewBox="0 0 14 18" fill="none" xmlns="http://www.w3.org/2000/svg">
<path fill-rule="evenodd" clip-rule="evenodd" d="M8.25 1.29167V4.83334C8.25 5.46616 8.763 5.97917 9.39584 5.97917H13.0417V14.4167C13.0417 15.6823 12.0157 16.7083 10.75 16.7083H3.25C1.98435 16.7083 0.958336 15.6823 0.958336 14.4167V3.58334C0.958336 2.31769 1.98435 1.29167 3.25 1.29167H8.25ZM13.6667 5.66667L13.3542 5.35417L11.3229 3.32292L8.875 0.826047L8.82817 0.778247C8.75817 0.70688 8.66242 0.666672 8.5625 0.666672H8.25H3.25C1.63917 0.666672 0.333336 1.97251 0.333336 3.58334V14.4167C0.333336 16.0275 1.63917 17.3333 3.25 17.3333H10.75C12.3608 17.3333 13.6667 16.0275 13.6667 14.4167V5.97917V5.66667ZM10.8766 3.76046L8.875 1.71881V4.83334C8.875 5.12099 9.10817 5.35417 9.39584 5.35417H12.4703L10.881 3.76486L10.8766 3.76046ZM3.66667 7.02084C3.49408 7.02084 3.35417 7.16075 3.35417 7.33334C3.35417 7.50592 3.49408 7.64584 3.66667 7.64584H7C7.17259 7.64584 7.3125 7.50592 7.3125 7.33334C7.3125 7.16075 7.17259 7.02084 7 7.02084H3.66667ZM3.66667 10.3542C3.49408 10.3542 3.35417 10.4941 3.35417 10.6667C3.35417 10.8393 3.49408 10.9792 3.66667 10.9792H10.2813C10.4538 10.9792 10.5938 10.8393 10.5938 10.6667C10.5938 10.4941 10.4538 10.3542 10.2813 10.3542H3.66667ZM3.66667 13.6875C3.49408 13.6875 3.35417 13.8274 3.35417 14C3.35417 14.1726 3.49408 14.3125 3.66667 14.3125H8.82292C8.9955 14.3125 9.13542 14.1726 9.13542 14C9.13542 13.8274 8.9955 13.6875 8.82292 13.6875H3.66667Z" fill="black"/>
</svg>
