<svg width="114" height="45" viewBox="0 0 114 45" fill="none" xmlns="http://www.w3.org/2000/svg">
<path d="M51.5078 27.4492V29.8457C51.5078 30.1309 51.5762 30.3457 51.7129 30.4902C51.8535 30.6309 52.0488 30.7012 52.2988 30.7012C52.6426 30.7012 52.9609 30.6621 53.2539 30.584C53.5508 30.5059 53.8496 30.4043 54.1504 30.2793V27.4492H55.9375V34H54.1504V31.3984C53.8652 31.5469 53.543 31.6836 53.1836 31.8086C52.8281 31.9336 52.4219 31.9961 51.9648 31.9961C51.2812 31.9961 50.7363 31.8223 50.3301 31.4746C49.9238 31.123 49.7207 30.5938 49.7207 29.8867V27.4492H51.5078ZM59.541 27.4492V30.0391C59.541 30.1719 59.5352 30.3398 59.5234 30.543C59.5156 30.7422 59.5039 30.9453 59.4883 31.1523C59.4727 31.3594 59.457 31.5449 59.4414 31.709C59.4258 31.873 59.4141 31.9844 59.4062 32.043L62.4297 27.4492H64.5801V34H62.8516V31.3867C62.8516 31.1719 62.8594 30.9355 62.875 30.6777C62.8906 30.416 62.9082 30.1699 62.9277 29.9395C62.9473 29.709 62.9609 29.5352 62.9688 29.418L59.957 34H57.8125V27.4492H59.541ZM71.8809 28.791H69.7363V34H67.9492V28.791H65.7988V27.4492H71.8809V28.791ZM75.7891 27.3145C76.668 27.3145 77.3418 27.5059 77.8105 27.8887C78.2793 28.2715 78.5137 28.8535 78.5137 29.6348V34H77.2656L76.9199 33.1094H76.873C76.6855 33.3438 76.4941 33.5352 76.2988 33.6836C76.1035 33.832 75.8789 33.9414 75.625 34.0117C75.3711 34.082 75.0625 34.1172 74.6992 34.1172C74.3125 34.1172 73.9648 34.043 73.6562 33.8945C73.3516 33.7461 73.1113 33.5195 72.9355 33.2148C72.7598 32.9062 72.6719 32.5156 72.6719 32.043C72.6719 31.3477 72.916 30.8359 73.4043 30.5078C73.8926 30.1758 74.625 29.9922 75.6016 29.957L76.7383 29.9219V29.6348C76.7383 29.291 76.6484 29.0391 76.4688 28.8789C76.2891 28.7188 76.0391 28.6387 75.7188 28.6387C75.4023 28.6387 75.0918 28.6836 74.7871 28.7734C74.4824 28.8633 74.1777 28.9766 73.873 29.1133L73.2812 27.9062C73.6289 27.7227 74.0176 27.5781 74.4473 27.4727C74.8809 27.3672 75.3281 27.3145 75.7891 27.3145ZM76.7383 30.9648L76.0469 30.9883C75.4688 31.0039 75.0664 31.1074 74.8398 31.2988C74.6172 31.4902 74.5059 31.7422 74.5059 32.0547C74.5059 32.3281 74.5859 32.5234 74.7461 32.6406C74.9062 32.7539 75.1152 32.8105 75.373 32.8105C75.7559 32.8105 76.0781 32.6973 76.3398 32.4707C76.6055 32.2441 76.7383 31.9219 76.7383 31.5039V30.9648ZM85.7793 28.791H83.6348V34H81.8477V28.791H79.6973V27.4492H85.7793V28.791ZM89.7051 27.3262C90.3105 27.3262 90.832 27.4434 91.2695 27.6777C91.707 27.9082 92.0449 28.2441 92.2832 28.6855C92.5215 29.127 92.6406 29.666 92.6406 30.3027V31.1699H88.416C88.4355 31.6738 88.5859 32.0703 88.8672 32.3594C89.1523 32.6445 89.5469 32.7871 90.0508 32.7871C90.4688 32.7871 90.8516 32.7441 91.1992 32.6582C91.5469 32.5723 91.9043 32.4434 92.2715 32.2715V33.6543C91.9473 33.8145 91.6074 33.9316 91.252 34.0059C90.9004 34.0801 90.4727 34.1172 89.9688 34.1172C89.3125 34.1172 88.7305 33.9961 88.2227 33.7539C87.7188 33.5117 87.3223 33.1426 87.0332 32.6465C86.748 32.1504 86.6055 31.5254 86.6055 30.7715C86.6055 30.0059 86.7344 29.3691 86.9922 28.8613C87.2539 28.3496 87.6172 27.9668 88.082 27.7129C88.5469 27.4551 89.0879 27.3262 89.7051 27.3262ZM89.7168 28.5977C89.3691 28.5977 89.0801 28.709 88.8496 28.9316C88.623 29.1543 88.4922 29.5039 88.457 29.9805H90.9648C90.9609 29.7148 90.9121 29.4785 90.8184 29.2715C90.7285 29.0645 90.5918 28.9004 90.4082 28.7793C90.2285 28.6582 89.998 28.5977 89.7168 28.5977ZM99.959 34H98.1719V28.791H96.5254C96.4434 29.752 96.3457 30.5703 96.2324 31.2461C96.1191 31.9219 95.9746 32.4727 95.7988 32.8984C95.623 33.3203 95.4043 33.6289 95.1426 33.8242C94.8809 34.0195 94.5586 34.1172 94.1758 34.1172C93.9648 34.1172 93.7754 34.1016 93.6074 34.0703C93.4434 34.0391 93.293 33.9922 93.1562 33.9297V32.5C93.2422 32.5352 93.334 32.5645 93.4316 32.5879C93.5293 32.6074 93.6289 32.6172 93.7305 32.6172C93.8438 32.6172 93.9512 32.5723 94.0527 32.4824C94.1543 32.3926 94.25 32.2383 94.3398 32.0195C94.4297 31.7969 94.5137 31.4902 94.5918 31.0996C94.6738 30.709 94.748 30.2148 94.8145 29.6172C94.8809 29.0195 94.9434 28.2969 95.002 27.4492H99.959V34ZM102.836 34H100.902L102.666 31.4102C102.443 31.3164 102.234 31.1875 102.039 31.0234C101.844 30.8555 101.686 30.6445 101.564 30.3906C101.443 30.1367 101.383 29.832 101.383 29.4766C101.383 28.8242 101.629 28.3242 102.121 27.9766C102.617 27.625 103.256 27.4492 104.037 27.4492H107.084V34H105.297V31.5625H104.312L102.836 34ZM103.135 29.4883C103.135 29.7617 103.242 29.9766 103.457 30.1328C103.676 30.2852 103.957 30.3613 104.301 30.3613H105.297V28.709H104.072C103.752 28.709 103.516 28.7871 103.363 28.9434C103.211 29.0957 103.135 29.2773 103.135 29.4883Z" fill="#2DB3FF"/>
<path d="M57.7871 12.4336V19.4883H58.9297V23.4961H57.1777V21H51.8105V23.4961H50.0586V19.4883H50.7207C50.9434 19.043 51.1582 18.5723 51.3652 18.0762C51.5723 17.5801 51.7656 17.0469 51.9453 16.4766C52.125 15.9062 52.2871 15.2871 52.4316 14.6191C52.5762 13.9512 52.6973 13.2227 52.7949 12.4336H57.7871ZM55.9766 13.9453H54.2363C54.1777 14.3594 54.0977 14.8008 53.9961 15.2695C53.8945 15.7383 53.7734 16.2168 53.6328 16.7051C53.4961 17.1895 53.3418 17.668 53.1699 18.1406C53.002 18.6133 52.8223 19.0625 52.6309 19.4883H55.9766V13.9453ZM62.1404 14.4492V16.9688H64.6365V14.4492H66.4236V21H64.6365V18.2988H62.1404V21H60.3533V14.4492H62.1404ZM71.2398 14.3262C71.8452 14.3262 72.3667 14.4434 72.8042 14.6777C73.2417 14.9082 73.5796 15.2441 73.8179 15.6855C74.0562 16.127 74.1753 16.666 74.1753 17.3027V18.1699H69.9507C69.9702 18.6738 70.1206 19.0703 70.4019 19.3594C70.687 19.6445 71.0816 19.7871 71.5855 19.7871C72.0034 19.7871 72.3862 19.7441 72.7339 19.6582C73.0816 19.5723 73.439 19.4434 73.8062 19.2715V20.6543C73.482 20.8145 73.1421 20.9316 72.7866 21.0059C72.4351 21.0801 72.0073 21.1172 71.5034 21.1172C70.8472 21.1172 70.2652 20.9961 69.7573 20.7539C69.2534 20.5117 68.857 20.1426 68.5679 19.6465C68.2827 19.1504 68.1402 18.5254 68.1402 17.7715C68.1402 17.0059 68.2691 16.3691 68.5269 15.8613C68.7886 15.3496 69.1519 14.9668 69.6167 14.7129C70.0816 14.4551 70.6226 14.3262 71.2398 14.3262ZM71.2515 15.5977C70.9038 15.5977 70.6148 15.709 70.3843 15.9316C70.1577 16.1543 70.0269 16.5039 69.9917 16.9805H72.4995C72.4956 16.7148 72.4468 16.4785 72.353 16.2715C72.2632 16.0645 72.1265 15.9004 71.9429 15.7793C71.7632 15.6582 71.5327 15.5977 71.2515 15.5977ZM81.6751 16.166C81.6751 16.5176 81.5637 16.8184 81.3411 17.0684C81.1223 17.3145 80.7981 17.4727 80.3684 17.543V17.5898C80.8216 17.6445 81.1868 17.8027 81.4641 18.0645C81.7415 18.3223 81.8802 18.6484 81.8802 19.043C81.8802 19.418 81.7825 19.7539 81.5872 20.0508C81.3919 20.3438 81.0813 20.5762 80.6555 20.748C80.2298 20.916 79.6731 21 78.9856 21H75.8684V14.4492H78.9856C79.4973 14.4492 79.9563 14.5039 80.3626 14.6133C80.7688 14.7188 81.0891 14.8965 81.3235 15.1465C81.5579 15.3965 81.6751 15.7363 81.6751 16.166ZM80.0286 18.9492C80.0286 18.6914 79.927 18.5059 79.7239 18.3926C79.5247 18.2754 79.2278 18.2168 78.8333 18.2168H77.6555V19.7637H78.8684C79.2044 19.7637 79.4817 19.7012 79.7005 19.5762C79.9192 19.4512 80.0286 19.2422 80.0286 18.9492ZM79.8645 16.3066C79.8645 16.1035 79.7845 15.9531 79.6243 15.8555C79.4641 15.7578 79.2278 15.709 78.9153 15.709H77.6555V17.0039H78.7102C79.0891 17.0039 79.3762 16.9492 79.5716 16.8398C79.7669 16.7305 79.8645 16.5527 79.8645 16.3066ZM85.4424 14.4492V16.9688H87.9385V14.4492H89.7256V21H87.9385V18.2988H85.4424V21H83.6553V14.4492H85.4424ZM93.5691 14.4492V17.0391C93.5691 17.1719 93.5633 17.3398 93.5516 17.543C93.5438 17.7422 93.532 17.9453 93.5164 18.1523C93.5008 18.3594 93.4852 18.5449 93.4695 18.709C93.4539 18.873 93.4422 18.9844 93.4344 19.043L96.4578 14.4492H98.6082V21H96.8797V18.3867C96.8797 18.1719 96.8875 17.9355 96.9031 17.6777C96.9188 17.416 96.9363 17.1699 96.9559 16.9395C96.9754 16.709 96.9891 16.5352 96.9969 16.418L93.9852 21H91.8406V14.4492H93.5691ZM105.024 14.4492H106.993L104.397 17.5898L107.221 21H105.194L102.516 17.6777V21H100.729V14.4492H102.516V17.6309L105.024 14.4492Z" fill="#2DB3FF"/>
<path d="M0 1C0 0.447715 0.447715 0 1 0H32.2526C35.014 0 37.2526 2.23858 37.2526 5V40C37.2526 42.7614 35.014 45 32.2526 45H1C0.447717 45 0 44.5523 0 44V1Z" fill="#F6EBD5"/>
<path d="M29.2254 28.4386C30.1975 29.1107 30.2016 30.7433 29.2254 31.4187C28.3209 32.0445 11.0565 31.8307 8.52434 31.7958C8.42628 31.7945 8.39547 31.6623 8.47272 31.6019C8.89907 31.2686 9.70548 30.5475 9.70548 29.8622C9.70548 29.1999 8.9522 28.5715 8.5168 28.2636C8.434 28.205 8.46235 28.0627 8.56376 28.0613C11.2305 28.0253 28.3292 27.819 29.2254 28.4386Z" fill="#6DCAFF"/>
<line x1="28.6866" y1="28.911" x2="10.3702" y2="28.911" stroke="#636363" stroke-width="0.2"/>
<path d="M29.2254 30.3012L10.909 30.3012M28.6867 31.0462L10.3703 31.0462" stroke="#636363" stroke-width="0.2"/>
<path d="M29.2254 29.6306L10.909 29.6306" stroke="#636363" stroke-width="0.2"/>
<path d="M3.54253 29.5266C4.00112 28.8215 5.53458 28.2611 6.34294 28.5074C7.07463 28.7302 9.83144 36.86 10.3478 38.4001C10.3771 38.4875 10.28 38.5688 10.1969 38.529C9.79142 38.335 8.94109 38 8.29768 38.2342C7.65433 38.4684 7.2183 39.2715 7.03236 39.6807C6.99423 39.7646 6.86762 39.7648 6.83391 39.679C6.23975 38.1667 3.12743 30.1648 3.54253 29.5266Z" fill="#6DCAFF"/>
<line x1="4.08237" y1="29.6284" x2="7.34133" y2="38.5823" stroke="#636363" stroke-width="0.2"/>
<path d="M5.2928 28.8896L8.55176 37.8435M6.08877 28.8981L9.34773 37.852" stroke="#636363" stroke-width="0.2"/>
<path d="M4.66272 29.1189L7.92167 38.0728" stroke="#636363" stroke-width="0.2"/>
<path d="M31.521 28.5069C32.3255 28.2616 33.8604 28.818 34.3214 29.5262C34.7387 30.1672 31.6248 38.1671 31.0303 39.6788C30.9966 39.7645 30.87 39.7644 30.8319 39.6805C30.646 39.2713 30.2099 38.468 29.5665 38.2339C28.9232 37.9997 28.0729 38.3346 27.6674 38.5286C27.5843 38.5684 27.4872 38.4871 27.5165 38.3997C28.0335 36.8593 30.7928 28.729 31.521 28.5069Z" fill="#6DCAFF"/>
<line x1="31.8691" y1="28.9318" x2="28.6101" y2="37.8857" stroke="#636363" stroke-width="0.2"/>
<path d="M33.2713 29.1439L30.0123 38.0978M33.8755 29.6621L30.6166 38.616" stroke="#636363" stroke-width="0.2"/>
<path d="M32.6412 28.9146L29.3822 37.8685" stroke="#636363" stroke-width="0.2"/>
<path d="M12.1297 13.4515C12.9083 12.9062 14.5166 13.1869 15.0646 13.969C15.5691 14.6892 13.3162 26.2713 12.9566 28.0994C12.939 28.1886 12.8189 28.2042 12.7658 28.1303C12.4967 27.7557 11.8799 27.0027 11.1955 26.8821C10.5373 26.766 9.81705 27.2347 9.46256 27.5089C9.38736 27.567 9.26892 27.5089 9.28361 27.4149C9.58887 25.464 11.4172 13.9505 12.1297 13.4515Z" fill="#6DCAFF"/>
<line x1="12.5302" y1="13.9003" x2="10.3308" y2="26.3738" stroke="#636363" stroke-width="0.2"/>
<path d="M13.964 13.7749L11.7646 26.2483M14.6331 14.2711L12.4337 26.7446" stroke="#636363" stroke-width="0.2"/>
<path d="M13.3037 13.6584L11.1043 26.1319" stroke="#636363" stroke-width="0.2"/>
<path d="M23.1055 13.9692C23.6507 13.1905 25.258 12.9042 26.0404 13.4517C26.7597 13.9551 28.5993 25.5735 28.891 27.4422C28.9052 27.5331 28.7952 27.5892 28.7201 27.5359C28.3417 27.2669 27.5219 26.7621 26.8416 26.882C26.1793 26.9988 25.6498 27.7078 25.4065 28.093C25.3559 28.1732 25.2255 28.1591 25.2073 28.066C24.828 26.1342 22.6065 14.682 23.1055 13.9692Z" fill="#6DCAFF"/>
<line x1="23.6356" y1="14.254" x2="25.835" y2="26.7274" stroke="#636363" stroke-width="0.2"/>
<path d="M24.9399 13.6457L27.1393 26.1192M25.7383 13.8832L27.9377 26.3567" stroke="#636363" stroke-width="0.2"/>
<path d="M24.2795 13.7622L26.4789 26.2356" stroke="#636363" stroke-width="0.2"/>
<path d="M26.0974 9.43901C26.7696 10.1111 26.7725 11.7437 26.0974 12.4191C25.4847 13.0321 14.0162 12.8394 11.9023 12.7986C11.803 12.7967 11.7637 12.6603 11.8435 12.6011C12.2739 12.2813 13.059 11.6054 13.059 10.9292C13.059 10.2531 12.2741 9.57726 11.8436 9.25744C11.7638 9.19819 11.8031 9.06182 11.9025 9.05992C14.0169 9.01951 25.4873 8.82902 26.0974 9.43901Z" fill="#6DCAFF"/>
<line x1="25.7249" y1="9.91148" x2="13.059" y2="9.91148" stroke="#636363" stroke-width="0.2"/>
<path d="M26.0974 11.3016L13.4315 11.3016M25.7249 12.0466L13.059 12.0466" stroke="#636363" stroke-width="0.2"/>
<path d="M26.0974 10.6311L13.4315 10.6311" stroke="#636363" stroke-width="0.2"/>
</svg>
