<svg width="18" height="14" viewBox="0 0 18 14" fill="none" xmlns="http://www.w3.org/2000/svg">
<path fill-rule="evenodd" clip-rule="evenodd" d="M8.99999 1.54548C8.93491 1.46082 8.86799 1.38108 8.79907 1.30612C8.72532 1.2259 8.64941 1.15115 8.57099 1.08169C7.13324 -0.192665 4.89161 0.313351 0.967465 1.45752C0.789898 1.50929 0.666656 1.67255 0.666656 1.85752V13.1094C0.666656 13.3877 0.934973 13.5875 1.20242 13.5107C5.61149 12.2433 7.46591 12.1475 8.58232 13.1833C8.61807 13.2166 8.65316 13.2509 8.68749 13.2865C8.79824 13.4012 8.90174 13.5279 8.99999 13.6667C9.09882 13.5315 9.20299 13.4096 9.31249 13.2999C9.34991 13.2624 9.38807 13.2264 9.42674 13.1917C10.8307 11.9362 13.0741 12.5337 16.4137 13.423C16.5442 13.4577 16.6762 13.4928 16.81 13.5283C17.074 13.5985 17.3333 13.3996 17.3333 13.1264V1.86417C17.3333 1.67607 17.2065 1.51108 17.025 1.46163C16.9096 1.43018 16.7956 1.39905 16.6828 1.36826C13.184 0.41306 10.9225 -0.204324 9.43407 1.08647C9.35507 1.15498 9.27824 1.22885 9.20349 1.30834C9.13382 1.38245 9.06607 1.46143 8.99999 1.54548ZM9.31249 12.4857V2.15935L9.49141 1.93165C10.0832 1.17855 10.843 0.916118 12.0186 0.989427C13.1869 1.06228 14.6459 1.46037 16.559 1.98236C16.6085 1.99586 16.6582 2.00944 16.7083 2.0231V12.8546C16.6547 12.8403 16.6014 12.8261 16.5482 12.8119C14.7928 12.3442 13.2593 11.9355 11.9947 11.8616C11.2992 11.8208 10.6407 11.877 10.0407 12.1025C9.78066 12.2002 9.53791 12.3275 9.31249 12.4857ZM8.68749 12.4652V2.16446L8.50449 1.9264C8.21307 1.54731 7.89324 1.30625 7.52566 1.15843C7.15087 1.00768 6.69141 0.939993 6.10469 0.962576C4.93407 1.00763 3.40052 1.40149 1.29166 2.01409V12.8352C3.65446 12.1656 5.33977 11.8229 6.58917 11.8528C7.25007 11.8686 7.81924 11.9885 8.31391 12.24C8.44632 12.3073 8.57057 12.3826 8.68749 12.4652Z" fill="black"/>
</svg>
